<?xml version="1.0" encoding="utf-8"?>
<!-- Generator: Adobe Illustrator 16.0.4, SVG Export Plug-In . SVG Version: 6.00 Build 0)  -->
<!DOCTYPE svg PUBLIC "-//W3C//DTD SVG 1.1//EN" "http://www.w3.org/Graphics/SVG/1.1/DTD/svg11.dtd">
<svg version="1.1" id="Layer_1" xmlns="http://www.w3.org/2000/svg" xmlns:xlink="http://www.w3.org/1999/xlink" x="0px" y="0px"
	 width="155.333px" height="38px" viewBox="0 0 155.333 38" enable-background="new 0 0 155.333 38" xml:space="preserve">
<g>
	<circle fill="#6D6E71" cx="15.98" cy="3.399" r="1.306"/>
	<path fill="#6D6E71" d="M31.208,19.822L28.032,7.074c0.439-0.21,0.745-0.656,0.745-1.175c0-0.721-0.584-1.306-1.305-1.306
		c-0.519,0-0.964,0.305-1.175,0.744c-2.537,0.163-4.172,1.084-5.647,1.916C19.5,7.902,18.471,8.475,17.131,8.69V6.37h1.167V5.194
		h-4.701V6.37h1.232v2.326c-1.356-0.212-2.394-0.788-3.551-1.442C9.891,6.471,8.363,5.61,6.075,5.375
		c-0.202-0.459-0.66-0.781-1.194-0.781c-0.528,0-0.979,0.314-1.186,0.765C3.683,5.359,3.67,5.359,3.657,5.359l0.006,0.076
		C3.608,5.58,3.575,5.735,3.575,5.899c0,0.543,0.332,1.008,0.804,1.205L1.21,19.822H1.094c0,0,0.284,2.442,3.787,2.442
		s3.787-2.442,3.787-2.442H8.552L5.383,7.104c0.266-0.11,0.482-0.309,0.625-0.555C8.026,6.767,9.379,7.532,10.7,8.277
		c1.209,0.683,2.46,1.377,4.129,1.602v17.693h-2.082v1.176h-2.154v1.176h11.41v-1.176H19.8v-1.176h-2.669V9.875
		c1.652-0.229,2.895-0.919,4.096-1.598c1.408-0.794,2.854-1.61,5.099-1.764c0.151,0.281,0.4,0.499,0.704,0.609l-3.165,12.699H23.75
		c0,0,0.283,2.442,3.787,2.442s3.787-2.442,3.787-2.442H31.208z M1.613,19.822L4.685,7.495v12.327H1.613z M5.077,19.822V7.495
		l3.072,12.327H5.077z M24.269,19.822L27.34,7.495v12.327H24.269z M27.732,19.822V7.495l3.072,12.327H27.732z"/>
</g>
<g>
	<path fill="#6D6E71" d="M49.241,29.924l-2.22-9.19l-2.221,9.19h-4.001L36.6,15.26h4.242l2.221,9.783l2.507-9.783h2.902l2.506,9.783
		l2.198-9.783h4.266l-4.199,14.664H49.241z"/>
	<path fill="#6D6E71" d="M57.307,29.924V15.26h7.343c3.298,0,5.101,2.221,5.101,4.881c0,2.638-1.803,4.858-5.101,4.858h-3.562v4.925
		H57.307z M65.903,20.141c0-1.012-0.814-1.583-1.824-1.583h-2.991v3.144h2.991C65.089,21.701,65.903,21.129,65.903,20.141z"/>
</g>
<g>
	<path fill="#6D6E71" d="M36.745,11.946V3.699h0.396v7.876h4.143v0.371H36.745z"/>
	<path fill="#6D6E71" d="M42.074,11.946V3.699h5.045V4.07H42.47V7.52h4.562v0.371H42.47v3.685h4.649v0.371H42.074z"/>
	<path fill="#6D6E71" d="M47.947,7.829c0-2.534,1.83-4.266,4.118-4.266c1.249,0,2.213,0.445,3.017,1.273l-0.26,0.272
		c-0.643-0.729-1.656-1.175-2.757-1.175c-2.065,0-3.684,1.571-3.684,3.895c0,2.3,1.619,3.907,3.684,3.907
		c1.212,0,2.139-0.606,2.622-1.113V8.361h-3.401V7.99h3.796v2.794c-0.705,0.791-1.78,1.323-3.017,1.323
		C49.777,12.107,47.947,10.364,47.947,7.829z"/>
	<path fill="#6D6E71" d="M62.302,11.946l-0.916-2.213h-4.599l-0.916,2.213h-0.457l3.438-8.247h0.469l3.438,8.247H62.302z
		 M59.087,4.157l-2.151,5.206h4.302L59.087,4.157z"/>
	<path fill="#6D6E71" d="M63.168,11.946V3.699h0.396v7.876h4.141v0.371H63.168z"/>
	<path fill="#6D6E71" d="M68.299,11.946V3.699h0.396v7.876h4.143v0.371H68.299z"/>
	<path fill="#6D6E71" d="M74.63,11.946V8.374l-3.314-4.674h0.507l3.005,4.279l3.004-4.279h0.507l-3.313,4.674v3.573H74.63z"/>
	<path fill="#6D6E71" d="M80.985,10.784l0.321-0.284c0.507,0.618,1.373,1.224,2.56,1.224c1.903,0,2.386-1.087,2.386-1.867
		c0-2.72-5.007-1.372-5.007-4.191c0-1.336,1.224-2.102,2.584-2.102c1.211,0,2.09,0.445,2.67,1.162l-0.31,0.285
		c-0.581-0.755-1.409-1.077-2.361-1.077c-1.2,0-2.152,0.718-2.152,1.731c0,2.349,5.008,1.113,5.008,4.191
		c0,0.927-0.593,2.238-2.819,2.238C82.58,12.095,81.579,11.539,80.985,10.784z"/>
	<path fill="#6D6E71" d="M87.786,11.946V3.699h0.396v8.247H87.786z"/>
	<path fill="#6D6E71" d="M89.332,7.829c0-2.534,1.829-4.266,4.116-4.266c1.25,0,2.214,0.445,3.017,1.273l-0.259,0.272
		c-0.643-0.729-1.657-1.175-2.758-1.175c-2.064,0-3.684,1.571-3.684,3.895c0,2.3,1.62,3.907,3.684,3.907
		c1.212,0,2.14-0.606,2.622-1.113V8.361h-3.4V7.99h3.795v2.794c-0.705,0.791-1.78,1.323-3.017,1.323
		C91.161,12.107,89.332,10.364,89.332,7.829z"/>
	<path fill="#6D6E71" d="M103.587,11.946l-5.564-7.604v7.604h-0.396V3.699h0.396l5.564,7.53v-7.53h0.396v8.247H103.587z"/>
	<path fill="#6D6E71" d="M105.417,11.946V3.699h5.045V4.07h-4.649V7.52h4.562v0.371h-4.562v3.685h4.649v0.371H105.417z"/>
	<path fill="#6D6E71" d="M111.576,11.946V3.699h2.448c2.56,0,4.104,1.929,4.104,4.13c0,2.226-1.545,4.117-4.104,4.117H111.576z
		 M117.695,7.829c0-2.065-1.335-3.759-3.672-3.759h-2.052v7.505h2.052C116.36,11.575,117.695,9.918,117.695,7.829z"/>
	<path fill="#6D6E71" d="M121.763,8.818V3.699h0.396v5.119c0,1.83,0.941,2.906,2.671,2.906s2.671-1.076,2.671-2.906V3.699h0.396
		v5.119c0,2.041-1.063,3.277-3.066,3.277S121.763,10.846,121.763,8.818z"/>
	<path fill="#6D6E71" d="M128.897,10.784l0.322-0.284c0.506,0.618,1.372,1.224,2.559,1.224c1.904,0,2.387-1.087,2.387-1.867
		c0-2.72-5.008-1.372-5.008-4.191c0-1.336,1.225-2.102,2.585-2.102c1.211,0,2.089,0.445,2.67,1.162l-0.31,0.285
		c-0.58-0.755-1.408-1.077-2.36-1.077c-1.2,0-2.151,0.718-2.151,1.731c0,2.349,5.007,1.113,5.007,4.191
		c0,0.927-0.594,2.238-2.819,2.238C130.493,12.095,129.491,11.539,128.897,10.784z"/>
	<path fill="#6D6E71" d="M135.698,11.946V3.699h0.396v8.247H135.698z"/>
	<path fill="#6D6E71" d="M143.487,11.946l-5.562-7.604v7.604h-0.396V3.699h0.396l5.562,7.53v-7.53h0.396v8.247H143.487z"/>
	<path fill="#6D6E71" d="M145.033,7.829c0-2.534,1.83-4.266,4.118-4.266c1.248,0,2.213,0.445,3.017,1.273l-0.26,0.272
		c-0.643-0.729-1.657-1.175-2.757-1.175c-2.065,0-3.685,1.571-3.685,3.895c0,2.3,1.619,3.907,3.685,3.907
		c1.211,0,2.139-0.606,2.621-1.113V8.361h-3.4V7.99h3.796v2.794c-0.705,0.791-1.78,1.323-3.017,1.323
		C146.863,12.107,145.033,10.364,145.033,7.829z"/>
</g>
<g>
	<path fill="#6D6E71" d="M71.538,29.611c-0.564-0.192-0.987-0.475-1.269-0.846c-0.282-0.371-0.468-0.79-0.557-1.258
		c-0.089-0.468-0.101-0.958-0.034-1.47s0.167-0.999,0.301-1.458c0.564-0.594,1.194-1.273,1.893-2.038
		c0.697-0.765,1.436-1.521,2.215-2.271c0.779-0.75,1.592-1.444,2.438-2.082s1.7-1.128,2.561-1.47
		c0.297-0.118,0.535-0.107,0.713,0.033c0.178,0.142,0.304,0.356,0.378,0.646c0.074,0.29,0.107,0.632,0.1,1.024
		c-0.008,0.394-0.041,0.771-0.1,1.136c-0.06,0.364-0.134,0.698-0.223,1.002c-0.089,0.304-0.186,0.509-0.29,0.612
		c-0.164,0.192-0.449,0.415-0.857,0.668s-0.883,0.523-1.425,0.812c-0.542,0.29-1.117,0.594-1.726,0.913
		c-0.609,0.319-1.191,0.643-1.748,0.969s-1.062,0.66-1.514,1.002s-0.794,0.676-1.024,1.002c-0.23,0.326-0.319,0.643-0.267,0.946
		c0.052,0.304,0.308,0.59,0.768,0.857c0.624,0.074,1.388,0.041,2.293-0.101c0.905-0.142,1.826-0.33,2.761-0.567
		s1.837-0.482,2.706-0.735c0.868-0.252,1.584-0.445,2.148-0.578l0.334,0.312c-0.267,0.356-0.661,0.693-1.18,1.013
		s-1.102,0.612-1.748,0.88c-0.646,0.267-1.336,0.493-2.071,0.679s-1.447,0.331-2.138,0.435s-1.336,0.152-1.937,0.145
		S71.939,29.745,71.538,29.611z M78.195,18.991c-0.015-0.03-0.152,0.044-0.412,0.223c-0.26,0.178-0.583,0.412-0.969,0.701
		c-0.386,0.289-0.794,0.604-1.225,0.946c-0.431,0.342-0.832,0.66-1.202,0.957c-0.372,0.298-0.672,0.549-0.902,0.758
		c-0.23,0.208-0.331,0.319-0.301,0.334c0.297,0.059,0.683,0.014,1.158-0.134c0.475-0.148,0.965-0.349,1.47-0.602
		c0.504-0.253,0.991-0.542,1.458-0.868s0.838-0.646,1.113-0.957c0.274-0.312,0.412-0.591,0.412-0.835
		C78.797,19.27,78.596,19.095,78.195,18.991z"/>
	<path fill="#6D6E71" d="M80.446,29.72c-0.146-0.097-0.148-0.227-0.007-0.386c0.141-0.161,0.366-0.337,0.677-0.531
		c0.311-0.194,0.669-0.394,1.077-0.598c0.408-0.203,0.803-0.396,1.187-0.575c0.383-0.179,0.723-0.339,1.019-0.479
		c0.296-0.142,0.483-0.246,0.561-0.313c0.32-0.271,0.517-0.507,0.59-0.705c0.073-0.2,0.058-0.367-0.044-0.503
		c-0.102-0.137-0.276-0.248-0.524-0.335c-0.248-0.088-0.527-0.163-0.837-0.227c-0.311-0.062-0.641-0.118-0.99-0.167
		s-0.677-0.102-0.982-0.16c-0.306-0.058-0.571-0.126-0.793-0.203c-0.224-0.078-0.374-0.18-0.452-0.306s-0.063-0.277,0.044-0.452
		c0.106-0.174,0.344-0.388,0.713-0.64c0.174-0.126,0.427-0.304,0.757-0.531c0.33-0.229,0.687-0.464,1.07-0.707
		c0.383-0.242,0.762-0.46,1.135-0.654c0.374-0.195,0.687-0.32,0.939-0.379c0.126-0.029,0.26-0.018,0.4,0.036
		s0.255,0.124,0.342,0.211c0.087,0.088,0.126,0.185,0.116,0.292c-0.01,0.106-0.092,0.203-0.247,0.291
		c-0.68,0.378-1.34,0.739-1.98,1.085c-0.641,0.344-1.281,0.734-1.922,1.171c-0.049,0.097-0.044,0.182,0.015,0.256
		c0.058,0.071,0.121,0.128,0.189,0.167c1.039,0.106,1.866,0.25,2.482,0.429c0.616,0.18,1.065,0.379,1.347,0.598
		c0.281,0.218,0.422,0.453,0.422,0.706c0,0.252-0.1,0.507-0.299,0.764c-0.199,0.258-0.476,0.512-0.83,0.765
		c-0.354,0.253-0.743,0.492-1.165,0.721c-0.422,0.229-0.857,0.437-1.303,0.626c-0.447,0.188-0.859,0.345-1.237,0.467
		c-0.378,0.12-0.702,0.208-0.968,0.262C80.682,29.766,80.514,29.769,80.446,29.72z"/>
	<path fill="#6D6E71" d="M86.474,29.684c0.583-1.873,1.113-3.363,1.593-4.471c0.479-1.106,0.876-1.884,1.19-2.329
		c0.314-0.445,0.531-0.591,0.651-0.437c0.12,0.154,0.111,0.554-0.026,1.199c-0.137,0.645-0.422,1.504-0.856,2.577
		s-1.044,2.307-1.833,3.7c-0.114,0.045-0.248,0.054-0.402,0.025S86.531,29.832,86.474,29.684z M90.225,19.39
		c-0.012-0.034-0.02-0.085-0.026-0.153c-0.006-0.069-0.008-0.144-0.008-0.223c0-0.08,0.002-0.154,0.008-0.224
		c0.006-0.068,0.014-0.113,0.026-0.137c0.331-0.113,0.582-0.128,0.753-0.043c0.171,0.086,0.277,0.212,0.317,0.377
		s0.034,0.343-0.017,0.531s-0.134,0.328-0.249,0.42c-0.114,0.091-0.243,0.104-0.385,0.042C90.501,19.918,90.362,19.722,90.225,19.39
		z"/>
	<path fill="#6D6E71" d="M87.58,36.22c-0.464-0.167-0.841-0.414-1.132-0.74c-0.292-0.327-0.515-0.681-0.669-1.062
		c-0.155-0.381-0.25-0.767-0.286-1.159c-0.036-0.393-0.026-0.737,0.027-1.034c0.054-0.298,0.143-0.523,0.268-0.679
		c0.125-0.153,0.271-0.189,0.437-0.106c-0.012,1.296,0.14,2.274,0.455,2.934c0.315,0.66,0.731,1.073,1.249,1.24
		c0.518,0.166,1.1,0.125,1.748-0.125s1.299-0.64,1.953-1.168c0.654-0.529,1.281-1.16,1.882-1.892c0.6-0.73,1.111-1.495,1.534-2.291
		c0.422-0.797,0.719-1.588,0.892-2.372c0.172-0.785,0.164-1.492-0.027-2.122c-1.07,0.772-1.947,1.313-2.631,1.622
		c-0.684,0.31-1.212,0.445-1.587,0.411c-0.375-0.036-0.606-0.217-0.696-0.544s-0.077-0.731,0.036-1.214
		c0.113-0.481,0.312-1.017,0.597-1.604c0.286-0.589,0.622-1.168,1.008-1.739c0.386-0.57,0.799-1.1,1.239-1.587
		s0.877-0.875,1.311-1.16s0.844-0.439,1.23-0.463c0.386-0.024,0.716,0.142,0.99,0.499c0.344,0.451,0.559,1.069,0.642,1.855
		c0.083,0.784,0.059,1.652-0.072,2.603c-0.131,0.952-0.362,1.948-0.696,2.988c-0.333,1.041-0.746,2.055-1.239,3.041
		c-0.494,0.986-1.053,1.908-1.677,2.765c-0.625,0.856-1.302,1.566-2.033,2.131c-0.731,0.564-1.498,0.946-2.301,1.142
		C89.229,36.585,88.412,36.528,87.58,36.22z M92.128,25.144c-0.024,0.048-0.039,0.131-0.045,0.25s-0.009,0.246-0.009,0.383
		c0,0.138,0.003,0.262,0.009,0.375c0.006,0.112,0.021,0.193,0.045,0.24c0.356,0.096,0.725,0.054,1.105-0.125
		c0.38-0.178,0.743-0.434,1.088-0.767s0.669-0.719,0.972-1.159c0.303-0.439,0.559-0.871,0.767-1.293
		c0.208-0.422,0.362-0.812,0.463-1.168s0.122-0.621,0.062-0.794s-0.202-0.229-0.428-0.17c-0.226,0.06-0.564,0.292-1.016,0.696
		c-0.178,0.166-0.417,0.39-0.713,0.669c-0.298,0.279-0.598,0.582-0.901,0.909c-0.303,0.327-0.586,0.663-0.847,1.008
		C92.419,24.543,92.234,24.858,92.128,25.144z"/>
	<path fill="#6D6E71" d="M105.178,29.705c-0.042-0.427-0.005-0.851,0.109-1.271c0.114-0.422,0.265-0.838,0.453-1.249
		c0.187-0.411,0.387-0.822,0.601-1.233s0.4-0.813,0.562-1.209c0.162-0.396,0.273-0.785,0.336-1.171
		c0.062-0.384,0.036-0.765-0.079-1.139c-0.333-0.114-0.709-0.086-1.131,0.086c-0.421,0.171-0.866,0.429-1.334,0.772
		c-0.468,0.343-0.952,0.746-1.452,1.209c-0.499,0.463-0.985,0.932-1.459,1.404c-0.473,0.474-0.926,0.924-1.357,1.351
		c-0.432,0.427-0.822,0.78-1.171,1.062c-0.348,0.28-0.64,0.458-0.874,0.53c-0.234,0.073-0.388-0.01-0.46-0.25
		c0-0.01,0.044-0.109,0.133-0.296c0.088-0.188,0.208-0.435,0.359-0.742c0.15-0.307,0.325-0.652,0.522-1.037s0.403-0.78,0.617-1.187
		c0.213-0.406,0.423-0.806,0.632-1.201c0.208-0.396,0.398-0.75,0.57-1.062c0.171-0.312,0.32-0.566,0.445-0.765
		c0.125-0.198,0.208-0.307,0.25-0.328c0.26,0.178,0.396,0.373,0.406,0.586s-0.023,0.437-0.101,0.671
		c-0.079,0.234-0.164,0.468-0.258,0.702c-0.093,0.234-0.109,0.466-0.047,0.694c0.218-0.146,0.51-0.346,0.874-0.601
		c0.364-0.255,0.767-0.518,1.209-0.788c0.442-0.271,0.897-0.533,1.366-0.788c0.468-0.255,0.913-0.461,1.334-0.617
		c0.421-0.155,0.796-0.238,1.124-0.249c0.328-0.01,0.57,0.089,0.726,0.297s0.206,0.549,0.149,1.022
		c-0.058,0.474-0.264,1.121-0.617,1.942c-0.021,0.062-0.074,0.185-0.156,0.367c-0.084,0.182-0.177,0.392-0.281,0.632
		c-0.104,0.239-0.216,0.494-0.336,0.765c-0.119,0.271-0.233,0.525-0.343,0.765c-0.109,0.239-0.203,0.449-0.281,0.632
		c-0.078,0.182-0.127,0.305-0.148,0.367c-0.021,0.052-0.039,0.147-0.054,0.288s-0.04,0.291-0.07,0.452
		c-0.031,0.162-0.073,0.317-0.125,0.469c-0.052,0.15-0.115,0.263-0.187,0.336c-0.042,0.041-0.086,0.055-0.133,0.039
		c-0.046-0.017-0.094-0.039-0.141-0.07s-0.086-0.065-0.117-0.102C105.209,29.755,105.188,29.726,105.178,29.705z"/>
	<path fill="#6D6E71" d="M108.805,29.535c-0.268-0.223-0.417-0.553-0.448-0.989c-0.032-0.438,0.028-0.925,0.181-1.465
		c0.151-0.539,0.377-1.108,0.675-1.706c0.299-0.597,0.643-1.165,1.03-1.705c0.388-0.539,0.81-1.023,1.264-1.451
		c0.455-0.429,0.912-0.747,1.371-0.957c0.46-0.21,0.908-0.283,1.345-0.221c0.437,0.062,0.834,0.317,1.19,0.763
		c0.224,0.276,0.357,0.557,0.402,0.843c0.044,0.285,0.038,0.575-0.02,0.869c-0.059,0.295-0.147,0.594-0.268,0.897
		c-0.12,0.303-0.239,0.61-0.354,0.922c-0.116,0.312-0.21,0.631-0.281,0.957c-0.071,0.325-0.084,0.653-0.04,0.982
		c0.044,0.321,0.165,0.542,0.361,0.662c0.196,0.121,0.442,0.17,0.736,0.147c0.294-0.022,0.62-0.098,0.976-0.227
		c0.357-0.13,0.718-0.288,1.084-0.476s0.722-0.386,1.07-0.596c0.348-0.209,0.656-0.403,0.923-0.581
		c0.267-0.179,0.566-0.388,0.896-0.63c0.312-0.062,0.488-0.039,0.528,0.068c0.04,0.106-0.021,0.26-0.181,0.46
		c-0.161,0.202-0.404,0.434-0.729,0.696c-0.326,0.264-0.695,0.518-1.11,0.763c-0.415,0.246-0.856,0.469-1.324,0.669
		c-0.468,0.2-0.926,0.339-1.371,0.414c-0.446,0.076-0.866,0.072-1.258-0.013s-0.718-0.283-0.977-0.595
		c-0.115-0.135-0.207-0.271-0.274-0.409c-0.067-0.138-0.163-0.256-0.288-0.354c-0.169,0.161-0.37,0.366-0.602,0.616
		c-0.232,0.249-0.486,0.499-0.762,0.748c-0.276,0.25-0.569,0.486-0.876,0.709c-0.309,0.224-0.623,0.394-0.944,0.509
		c-0.321,0.116-0.646,0.156-0.976,0.12C109.424,29.941,109.108,29.794,108.805,29.535z M108.991,28.974
		c0.072,0.268,0.219,0.424,0.442,0.469c0.223,0.044,0.486,0.001,0.79-0.128s0.635-0.334,0.996-0.615
		c0.361-0.28,0.718-0.619,1.07-1.016c0.352-0.397,0.689-0.837,1.01-1.318c0.321-0.481,0.595-0.987,0.823-1.519
		c0.228-0.53,0.395-1.069,0.502-1.618c0.107-0.548,0.12-1.091,0.041-1.626c-0.197-0.16-0.435-0.202-0.716-0.126
		c-0.281,0.075-0.584,0.233-0.909,0.474c-0.326,0.242-0.661,0.549-1.004,0.924s-0.676,0.782-0.996,1.224
		c-0.321,0.441-0.623,0.9-0.903,1.378s-0.517,0.935-0.709,1.371c-0.192,0.438-0.33,0.843-0.415,1.218
		C108.927,28.438,108.92,28.741,108.991,28.974z"/>
	<path fill="#6D6E71" d="M120.543,29.705c-0.021-0.031-0.031-0.104-0.031-0.219c0-0.114,0.01-0.188,0.031-0.218
		c0.042-0.146,0.112-0.398,0.21-0.757c0.1-0.359,0.208-0.737,0.328-1.132c0.12-0.396,0.231-0.77,0.335-1.124
		c0.104-0.354,0.177-0.604,0.219-0.749c0.052-0.177,0.112-0.388,0.18-0.632c0.068-0.245,0.081-0.476,0.039-0.694
		c-0.198-0.021-0.437,0.005-0.718,0.078c-0.281,0.072-0.564,0.13-0.85,0.171c-0.286,0.042-0.549,0.042-0.788,0
		c-0.24-0.041-0.412-0.191-0.516-0.452c0.093-0.219,0.231-0.383,0.414-0.491c0.182-0.11,0.383-0.19,0.602-0.242
		c0.218-0.052,0.449-0.089,0.694-0.109c0.244-0.021,0.48-0.052,0.71-0.094c0.229-0.041,0.442-0.106,0.64-0.194
		c0.198-0.089,0.359-0.228,0.484-0.414c0.125-0.333,0.266-0.744,0.421-1.233c0.156-0.488,0.328-0.998,0.515-1.529
		c0.188-0.53,0.389-1.059,0.602-1.583c0.213-0.526,0.435-0.992,0.663-1.397c0.146-0.094,0.263-0.099,0.351-0.016
		c0.089,0.084,0.159,0.2,0.211,0.351c0.053,0.151,0.084,0.305,0.095,0.461c0.01,0.156,0.01,0.261,0,0.312
		c-0.084,0.345-0.219,0.706-0.406,1.085c-0.188,0.381-0.364,0.768-0.531,1.163c-0.166,0.395-0.296,0.785-0.39,1.17
		c-0.094,0.386-0.094,0.755,0,1.108h4.183c0.021,0,0.057,0.042,0.108,0.125c0.053,0.083,0.095,0.15,0.126,0.203
		c0.072,0.177,0.005,0.296-0.203,0.358s-0.489,0.104-0.843,0.125s-0.752,0.036-1.194,0.047s-0.871,0.041-1.287,0.094
		c-0.417,0.052-0.786,0.146-1.107,0.281c-0.323,0.135-0.542,0.343-0.656,0.624c-0.344,0.885-0.658,1.766-0.944,2.646
		c-0.287,0.878-0.559,1.761-0.82,2.646c-0.031,0.051-0.085,0.118-0.164,0.202c-0.078,0.083-0.162,0.153-0.25,0.21
		c-0.088,0.058-0.177,0.079-0.265,0.062C120.65,29.931,120.585,29.851,120.543,29.705z"/>
	<path fill="#6D6E71" d="M134.582,29.705c-0.363-0.136-0.649-0.323-0.857-0.562c-0.208-0.24-0.369-0.507-0.484-0.805
		c-0.114-0.296-0.2-0.61-0.258-0.943s-0.116-0.666-0.179-0.999c-0.095-0.062-0.237-0.031-0.429,0.094
		c-0.193,0.125-0.42,0.294-0.68,0.507s-0.546,0.458-0.858,0.734c-0.312,0.275-0.632,0.535-0.96,0.78
		c-0.327,0.243-0.653,0.458-0.975,0.64c-0.323,0.182-0.63,0.285-0.921,0.312c-0.292,0.026-0.552-0.039-0.78-0.194
		c-0.229-0.157-0.417-0.453-0.562-0.89c-0.073-0.198-0.052-0.479,0.062-0.843c0.114-0.364,0.283-0.771,0.508-1.218
		c0.224-0.447,0.478-0.907,0.765-1.381c0.286-0.474,0.572-0.915,0.858-1.326s0.549-0.763,0.787-1.054
		c0.24-0.291,0.422-0.483,0.547-0.578c0.302,0.146,0.437,0.365,0.406,0.656c-0.032,0.291-0.151,0.624-0.359,0.998
		c-0.209,0.375-0.471,0.778-0.788,1.21s-0.614,0.861-0.89,1.288c-0.275,0.426-0.5,0.835-0.671,1.225
		c-0.172,0.39-0.216,0.73-0.133,1.022c0.208,0.083,0.461,0.067,0.757-0.048c0.296-0.113,0.616-0.299,0.96-0.554
		c0.344-0.254,0.705-0.562,1.084-0.921c0.381-0.358,0.755-0.738,1.124-1.139s0.731-0.802,1.085-1.201
		c0.354-0.401,0.679-0.775,0.976-1.125c0.296-0.348,0.557-0.647,0.78-0.896c0.223-0.25,0.392-0.421,0.507-0.516
		c0.271,0.136,0.405,0.349,0.405,0.64c0,0.292-0.072,0.627-0.218,1.008c-0.146,0.379-0.328,0.787-0.547,1.225
		c-0.218,0.438-0.405,0.869-0.562,1.295c-0.156,0.427-0.247,0.835-0.273,1.225c-0.025,0.391,0.081,0.727,0.32,1.008l0.655,0.779
		h1.982c0.094,0,0.111,0.04,0.054,0.118c-0.057,0.077-0.135,0.163-0.233,0.257c-0.1,0.094-0.2,0.182-0.304,0.266
		c-0.104,0.083-0.162,0.125-0.173,0.125c-0.166,0.03-0.312,0.047-0.437,0.047s-0.247-0.012-0.366-0.032
		c-0.12-0.021-0.237-0.049-0.352-0.085S134.718,29.768,134.582,29.705z"/>
	<path fill="#6D6E71" d="M136.988,29.72c-0.021-0.01-0.015-0.152,0.014-0.43c0.029-0.276,0.076-0.621,0.139-1.033
		c0.063-0.413,0.141-0.866,0.232-1.361c0.093-0.495,0.194-0.968,0.307-1.42c0.111-0.45,0.23-0.854,0.356-1.208
		s0.253-0.595,0.379-0.721c0.087-0.087,0.172-0.09,0.255-0.007c0.082,0.082,0.164,0.182,0.246,0.298
		c0.083,0.116,0.168,0.219,0.256,0.306c0.087,0.088,0.18,0.097,0.276,0.029c0.34-0.476,0.713-0.929,1.121-1.36
		c0.407-0.433,0.858-0.804,1.354-1.114c0.049-0.039,0.183-0.097,0.4-0.175c0.219-0.078,0.469-0.155,0.75-0.233
		c0.282-0.078,0.57-0.146,0.866-0.203c0.296-0.059,0.549-0.083,0.758-0.073c0.208,0.01,0.351,0.065,0.429,0.168
		c0.078,0.101,0.039,0.274-0.116,0.517c-0.544,0.009-1.061,0.133-1.551,0.37c-0.49,0.238-0.953,0.552-1.391,0.939
		c-0.437,0.389-0.847,0.83-1.23,1.325c-0.383,0.495-0.734,0.997-1.055,1.507c-0.32,0.509-0.614,1.009-0.881,1.499
		s-0.5,0.928-0.698,1.311c-0.2,0.384-0.369,0.691-0.511,0.925c-0.141,0.232-0.245,0.35-0.312,0.35c-0.02,0-0.078-0.027-0.175-0.081
		C137.109,29.79,137.037,29.749,136.988,29.72z"/>
	<path fill="#6D6E71" d="M144.719,29.705c-0.396-0.136-0.691-0.333-0.89-0.594c-0.197-0.259-0.327-0.554-0.391-0.881
		c-0.062-0.328-0.069-0.672-0.022-1.03s0.117-0.7,0.211-1.022c0.396-0.415,0.837-0.892,1.326-1.428s1.006-1.066,1.553-1.592
		c0.546-0.525,1.115-1.012,1.709-1.459c0.593-0.447,1.191-0.791,1.794-1.03c0.208-0.083,0.375-0.076,0.5,0.023
		c0.125,0.099,0.213,0.249,0.265,0.452c0.053,0.203,0.076,0.443,0.07,0.719c-0.005,0.275-0.028,0.54-0.07,0.796
		c-0.041,0.255-0.093,0.488-0.155,0.702c-0.062,0.213-0.131,0.355-0.203,0.429c-0.115,0.136-0.314,0.291-0.601,0.469
		c-0.287,0.177-0.619,0.366-0.999,0.569s-0.783,0.416-1.209,0.64c-0.427,0.225-0.835,0.45-1.226,0.679
		c-0.39,0.229-0.743,0.464-1.062,0.702c-0.316,0.24-0.557,0.474-0.718,0.702c-0.161,0.229-0.224,0.451-0.188,0.664
		c0.037,0.213,0.216,0.413,0.539,0.601c0.437,0.052,0.973,0.029,1.607-0.07c0.635-0.099,1.279-0.231,1.936-0.398
		c0.655-0.166,1.287-0.337,1.896-0.515c0.609-0.177,1.111-0.312,1.506-0.406l0.234,0.219c-0.188,0.25-0.463,0.486-0.827,0.711
		c-0.364,0.224-0.772,0.429-1.226,0.615c-0.452,0.188-0.936,0.347-1.45,0.477c-0.516,0.13-1.015,0.232-1.499,0.305
		c-0.483,0.073-0.936,0.106-1.357,0.102C145.352,29.848,145,29.799,144.719,29.705z M149.386,22.261
		c-0.012-0.021-0.107,0.031-0.29,0.155c-0.181,0.125-0.408,0.29-0.678,0.493c-0.271,0.202-0.557,0.424-0.859,0.662
		c-0.301,0.24-0.582,0.464-0.843,0.672c-0.26,0.208-0.471,0.385-0.632,0.53c-0.161,0.146-0.23,0.224-0.21,0.234
		c0.208,0.041,0.479,0.011,0.812-0.094s0.676-0.244,1.03-0.422c0.353-0.177,0.694-0.379,1.021-0.608
		c0.328-0.229,0.588-0.452,0.78-0.671s0.289-0.414,0.289-0.585C149.807,22.456,149.667,22.333,149.386,22.261z"/>
</g>
</svg>
