<?xml version="1.0" encoding="utf-8"?>
<!-- Generator: Adobe Illustrator 16.0.4, SVG Export Plug-In . SVG Version: 6.00 Build 0)  -->
<!DOCTYPE svg PUBLIC "-//W3C//DTD SVG 1.1//EN" "http://www.w3.org/Graphics/SVG/1.1/DTD/svg11.dtd">
<svg version="1.1" id="Layer_1" xmlns="http://www.w3.org/2000/svg" xmlns:xlink="http://www.w3.org/1999/xlink" x="0px" y="0px"
	 width="204.667px" height="79.333px" viewBox="7.667 -2.531 204.667 79.333" enable-background="new 7.667 -2.531 204.667 79.333"
	 xml:space="preserve">
<path fill="#23282E" stroke="#FFFFFF" stroke-width="2" stroke-miterlimit="10" d="M211,41.569
	c0,16.796-13.616,30.412-30.412,30.412H44.079c-16.796,0-30.412-13.616-30.412-30.412l0,0c0-16.796,13.616-30.412,30.412-30.412
	h136.509C197.384,11.156,211,24.773,211,41.569L211,41.569z"/>
<circle fill="#23282E" stroke="#FFFFFF" stroke-width="4" stroke-miterlimit="10" cx="42.013" cy="41.942" r="31.833"/>
<g>
	<path fill="#FFFFFF" d="M151.648,51.345c0.014-0.527,0.179-0.933,0.456-1.225c0.291-0.29,0.656-0.428,1.101-0.428
		c0.491,0,0.87,0.138,1.137,0.428c0.238,0.265,0.39,0.684,0.428,1.225H151.648L151.648,51.345z M155.994,49.021
		c-0.681-0.731-1.628-1.11-2.853-1.11c-1.162,0-2.058,0.379-2.716,1.138c-0.631,0.732-0.947,1.754-0.947,3.057
		c0,1.36,0.328,2.41,0.972,3.156c0.658,0.745,1.566,1.124,2.729,1.124c0.959,0,1.754-0.227,2.387-0.693
		c0.63-0.456,1.061-1.115,1.275-1.961h-1.528c-0.242,0-0.43,0.052-0.556,0.15c-0.14,0.104-0.216,0.179-0.24,0.242
		c-0.052,0.063-0.114,0.114-0.163,0.164c-0.051,0.048-0.103,0.087-0.165,0.113c-0.252,0.139-0.543,0.213-0.885,0.213
		c-0.529,0-0.933-0.164-1.2-0.49c-0.277-0.305-0.442-0.773-0.456-1.402h5.294c0.012-0.039,0.025-0.115,0.025-0.213v-0.33
		C156.967,50.828,156.64,49.779,155.994,49.021L155.994,49.021z M148.126,48.112c-0.49,0-0.808,0.241-0.959,0.735l-1.439,4.978
		l-1.629-5.711h-2.26l2.841,8.137h2.173l2.867-8.137L148.126,48.112L148.126,48.112z M139.55,53.91
		c-0.251,0.377-0.529,0.604-0.845,0.696c-0.315,0.089-0.632,0.074-0.934-0.026c-0.302-0.114-0.519-0.252-0.645-0.416
		c-0.302-0.367-0.479-1.011-0.518-1.943c-0.037-0.924,0.152-1.634,0.58-2.1c0.141-0.137,0.368-0.25,0.67-0.352
		c0.317-0.087,0.618-0.077,0.922,0.023c0.302,0.102,0.58,0.328,0.81,0.694c0.238,0.369,0.352,0.922,0.352,1.656
		C139.917,52.962,139.792,53.542,139.55,53.91L139.55,53.91z M139.792,48.164c-0.67-0.241-1.428-0.305-2.261-0.188
		c-0.834,0.097-1.515,0.464-2.046,1.071c-0.329,0.378-0.569,0.832-0.718,1.377c-0.153,0.553-0.242,1.112-0.242,1.653
		c0,0.668,0.101,1.326,0.279,1.943c0.188,0.621,0.493,1.112,0.921,1.479c0.405,0.366,0.948,0.63,1.628,0.783
		c0.697,0.151,1.364,0.137,2.047-0.037c0.746-0.167,1.364-0.583,1.857-1.265c0.226-0.328,0.416-0.719,0.555-1.188
		c0.139-0.464,0.215-1.034,0.215-1.68c0-0.896-0.178-1.689-0.517-2.36C141.143,48.997,140.563,48.466,139.792,48.164L139.792,48.164
		z M132.567,48.328c-0.518,0.135-0.972,0.367-1.363,0.669c-0.406,0.327-0.72,0.756-0.961,1.299c-0.228,0.545-0.354,1.2-0.354,1.997
		v3.954h2.147v-4.193c0-0.607,0.139-1.062,0.431-1.337c0.276-0.292,0.719-0.431,1.314-0.431h0.693v-2.175h-0.304
		C133.628,48.112,133.084,48.174,132.567,48.328L132.567,48.328z M126.833,53.945c-0.315,0.43-0.732,0.647-1.25,0.647
		c-0.581,0-1.01-0.218-1.313-0.647c-0.317-0.388-0.468-0.97-0.468-1.74c0-0.835,0.151-1.454,0.431-1.83
		c0.301-0.431,0.73-0.646,1.285-0.646c0.568,0,0.999,0.215,1.315,0.646c0.304,0.418,0.456,1.035,0.456,1.83
		C127.289,52.938,127.137,53.519,126.833,53.945L126.833,53.945z M127.249,48.202c-0.528-0.192-1.035-0.293-1.552-0.293
		c-0.972,0-1.882,0.265-2.716,0.785c-0.833,0.515-1.251,1.498-1.251,2.929v7.617h1.037c0.29,0,0.53-0.103,0.733-0.305
		c0.202-0.203,0.303-0.455,0.303-0.735v-3.03c0.253,0.43,0.582,0.743,0.986,0.947c0.376,0.188,0.833,0.275,1.337,0.275
		c0.96,0,1.745-0.387,2.364-1.161c0.604-0.792,0.908-1.841,0.908-3.12c0-1.247-0.304-2.272-0.908-3.067
		C128.172,48.68,127.768,48.406,127.249,48.202L127.249,48.202z M118.662,53.945c-0.304,0.43-0.719,0.647-1.251,0.647
		c-0.568,0-1.01-0.218-1.312-0.647c-0.305-0.388-0.456-0.97-0.456-1.74c0-0.835,0.139-1.454,0.419-1.83
		c0.314-0.431,0.731-0.646,1.286-0.646c0.569,0,1.01,0.215,1.315,0.646c0.302,0.418,0.453,1.035,0.453,1.83
		C119.116,52.938,118.964,53.519,118.662,53.945L118.662,53.945z M119.079,48.202c-0.517-0.192-1.036-0.293-1.541-0.293
		c-0.985,0-1.895,0.265-2.728,0.785c-0.833,0.518-1.249,1.498-1.249,2.929v7.617h1.034c0.291,0,0.529-0.103,0.732-0.305
		c0.202-0.203,0.314-0.455,0.314-0.735v-3.03c0.242,0.43,0.569,0.743,0.974,0.947c0.392,0.188,0.834,0.275,1.35,0.275
		c0.949,0,1.732-0.387,2.351-1.161c0.606-0.792,0.921-1.841,0.921-3.12c0-1.247-0.315-2.272-0.921-3.067
		C120.015,48.68,119.596,48.406,119.079,48.202L119.079,48.202z M110.984,52.901c0,0.579-0.165,1.024-0.494,1.347
		c-0.329,0.329-0.771,0.494-1.339,0.494c-0.631,0-1.073-0.313-1.073-0.983c0-0.959,0.972-1.062,1.704-1.226
		c0.52-0.116,0.911-0.251,1.202-0.392V52.901L110.984,52.901z M112.081,48.493c-0.568-0.382-1.426-0.584-2.575-0.584
		c-1.024,0-1.807,0.241-2.349,0.707c-0.492,0.404-0.786,0.936-0.86,1.565h2.045c0.101-0.226,0.266-0.376,0.492-0.465
		c0.228-0.078,0.481-0.118,0.758-0.118c0.494,0,1.352,0.091,1.352,0.733c0,0.405-0.442,0.673-1.34,0.796
		c-0.354,0.041-0.734,0.091-1.072,0.154c-1.428,0.277-2.439,0.956-2.439,2.536c0,0.911,0.266,1.578,0.82,1.969
		c1.164,0.848,3.297,0.774,4.56,0.103c0.404-0.203,0.758-0.531,1.048-0.987c0.305-0.463,0.442-1.097,0.442-1.919v-2.779
		C112.966,49.477,112.675,48.908,112.081,48.493z"/>
	<path fill="#FFFFFF" d="M184.084,54.177l-0.264-5.913c-0.127-2.643-2.527-4.443-5.091-4.18L162.362,45.8
		c-2.06,0.216-3.487,2.21-3.538,4.194l-0.141,4.784c-0.05,2.009,1.29,4.056,3.45,4.081l6.757,0.101
		c-0.214,1.211-0.606,1.781-1.692,2.864c2.701-0.58,4.382-1.299,5.67-2.816l6.327,0.09
		C181.912,59.138,184.211,56.929,184.084,54.177z M173.223,56.07h-1.074c-0.316,0-0.556-0.1-0.756-0.291
		c-0.189-0.2-0.291-0.453-0.291-0.756v-4.155c0-0.493-0.139-0.847-0.443-1.074c-0.291-0.228-0.63-0.328-0.996-0.328
		s-0.695,0.101-0.987,0.328c-0.303,0.228-0.454,0.581-0.454,1.074v5.202h-2.109v-5.202c0-0.861-0.595-1.402-1.441-1.402
		c-0.843,0-1.402,0.556-1.402,1.402v5.202h-2.133v-4.772c0-1.871,0.746-2.979,2.525-3.427c1.163-0.277,2.617-0.15,3.563,0.633
		c0.302-0.266,0.67-0.455,1.085-0.568c0.417-0.114,0.846-0.177,1.301-0.19c2.287,0,3.613,1.225,3.613,3.551L173.223,56.07
		L173.223,56.07z M181.218,52.332c0,0.113-0.014,0.176-0.038,0.213h-5.291c0.023,0.633,0.176,1.099,0.465,1.399
		c0.265,0.333,0.655,0.495,1.187,0.495c0.341,0,0.645-0.074,0.885-0.215c0.062-0.024,0.126-0.061,0.176-0.114
		c0.052-0.051,0.101-0.099,0.165-0.166c0.027-0.061,0.103-0.136,0.228-0.234c0.138-0.104,0.329-0.153,0.569-0.153h1.529
		c-0.23,0.846-0.658,1.5-1.291,1.958c-0.632,0.47-1.426,0.696-2.386,0.696c-1.163,0-2.06-0.378-2.715-1.127
		c-0.659-0.729-0.985-1.793-0.985-3.153c0-1.305,0.316-2.322,0.945-3.058c0.659-0.76,1.569-1.128,2.728-1.128
		c1.226,0,2.175,0.368,2.843,1.104c0.657,0.754,0.985,1.8,0.985,3.154V52.332L181.218,52.332z M177.453,49.513
		c-0.453,0-0.819,0.141-1.098,0.431c-0.289,0.29-0.442,0.696-0.465,1.226h3.117c-0.036-0.543-0.175-0.96-0.429-1.226
		C178.311,49.654,177.946,49.513,177.453,49.513z"/>
	<text transform="matrix(1 0 0 1 184.0889 52.9465)" fill="#FFFFFF" font-family="'ProximaNova-Regular'" font-size="12.9568">™</text>
</g>
<g>
	<path fill="#23282E" d="M42.119,11.156c-16.222,0-29.372,13.149-29.372,29.371S25.896,69.9,42.119,69.9
		c16.222,0,29.372-13.151,29.372-29.372S58.34,11.156,42.119,11.156z M57.062,58.842H27.176V34.39h2.716v-3.794
		c0-6.649,5.485-12.056,12.226-12.056c6.741,0,12.226,5.408,12.226,12.056v3.794h2.717L57.062,58.842L57.062,58.842z"/>
	<path fill="#23282E" d="M44.013,45.258c0-1.244-1.007-2.252-2.25-2.252c-1.242,0-2.25,1.007-2.25,2.252
		c0,0.831,0.473,1.528,1.146,1.918l-1.146,6.232h4.5l-1.146-6.232C43.542,46.786,44.013,46.089,44.013,45.258z"/>
	<path fill="#23282E" d="M42.119,23.974c-3.683,0-6.792,3.033-6.792,6.623v3.794h13.584v-3.794
		C48.911,27.007,45.801,23.974,42.119,23.974z"/>
	<path fill="#FFFFFF" d="M54.345,30.596c0-6.649-5.485-12.056-12.226-12.056c-6.741,0-12.226,5.408-12.226,12.056v3.794h-2.716
		v24.452h29.886V34.39h-2.717L54.345,30.596L54.345,30.596z M44.013,53.408h-4.5l1.146-6.232c-0.673-0.39-1.146-1.087-1.146-1.918
		c0-1.244,1.008-2.252,2.25-2.252c1.243,0,2.25,1.007,2.25,2.252c0,0.831-0.472,1.528-1.146,1.918L44.013,53.408z M48.911,34.39
		H35.327v-3.794c0-3.589,3.109-6.623,6.791-6.623c3.683,0,6.792,3.033,6.792,6.623L48.911,34.39L48.911,34.39z"/>
</g>
<g>
	<path fill="#FFFFFF" d="M64.441,4.498c2.28-0.615,4.516-1.4,6.664-2.383c1.867,0.861,3.807,1.563,5.779,2.143
		c3.193,0.923,6.528,1.523,9.863,1.303c0.563,3.789,0.762,7.647,0.368,11.463c-0.287,2.779-0.893,5.532-1.89,8.144
		c-0.903,2.383-2.142,4.643-3.687,6.671c-1.572,2.065-3.459,3.89-5.58,5.387c-1.507,1.057-3.119,1.986-4.85,2.625
		c-1.224-0.447-2.381-1.054-3.491-1.732c-2.851-1.75-5.345-4.078-7.305-6.789c-2.046-2.825-3.499-6.062-4.357-9.438
		c-0.599-2.352-0.924-4.765-1.029-7.188c-0.131-3.059,0.084-6.126,0.536-9.153C58.487,5.756,61.52,5.272,64.441,4.498z"/>
</g>
<g>
	<path fill="#FFFFFF" stroke="#23282E" stroke-width="4" stroke-miterlimit="10" d="M65.854,8.067
		c1.787-0.482,3.539-1.097,5.222-1.867c1.462,0.674,2.982,1.224,4.527,1.679c2.503,0.723,5.115,1.193,7.729,1.021
		c0.441,2.968,0.597,5.992,0.288,8.981c-0.224,2.177-0.699,4.334-1.48,6.381c-0.708,1.867-1.679,3.637-2.889,5.227
		c-1.231,1.618-2.71,3.048-4.372,4.221c-1.181,0.828-2.444,1.556-3.8,2.056c-0.959-0.35-1.866-0.827-2.736-1.357
		c-2.234-1.372-4.187-3.196-5.723-5.32c-1.604-2.213-2.742-4.749-3.414-7.395c-0.47-1.842-0.726-3.733-0.807-5.632
		c-0.103-2.397,0.066-4.8,0.42-7.171C61.188,9.052,63.565,8.672,65.854,8.067z"/>
</g>
<polygon fill="#23282E" points="78.22,10.987 69.196,21.376 65.299,17.481 64,20.077 68.04,24.596 68.98,25.772 69.961,24.634 
	79.583,12.285 "/>
<text transform="matrix(1 0 0 1 92.5669 38.4944)" fill="#FFFFFF" font-family="'ProximaNova-Bold'" font-size="27.0875">verified</text>
<text transform="matrix(1 0 0 1 91.623 54.5872)" fill="#FFFFFF" font-family="'ProximaNova-Regular'" font-size="10">by</text>
</svg>
